<?xml version="1.0" ?><!-- Uploaded to: SVG Repo, www.svgrepo.com, Generator: SVG Repo Mixer Tools -->
<svg width="800px" height="800px" viewBox="0 0 128 128" data-name="Layer 2" id="Layer_2" xmlns="http://www.w3.org/2000/svg"><defs><style>.cls-1{fill:#f1edd8;}.cls-2{fill:#f1e175;}.cls-3{fill:#553f07;}.cls-4{fill:#8b7847;}.cls-5{fill:#ea563a;}.cls-6{fill:#616834;}.cls-7{fill:#909650;}</style></defs><title/><rect class="cls-1" height="55.57" width="30.74" x="50.46" y="43.31"/><path class="cls-2" d="M47.56,43.34l0,22a2.73,2.73,0,0,0,2.74,2.75h.41a2.74,2.74,0,0,0,2.74-2.74V51.46a2.21,2.21,0,0,1,2.2-2.2h0a2.2,2.2,0,0,1,2.19,2.2v6.59A2.93,2.93,0,0,0,60.73,61h0a2.93,2.93,0,0,0,2.93-2.92V52.19a2.93,2.93,0,0,1,2.93-2.93h0a2.93,2.93,0,0,1,2.92,2.93V65.36a2.93,2.93,0,0,0,2.93,2.93h0a2.93,2.93,0,0,0,2.93-2.93V50.7a1.46,1.46,0,0,1,1.46-1.46h0a1.47,1.47,0,0,1,1.47,1.45l.06,6a2.71,2.71,0,0,0,2.71,2.67h.38a2.7,2.7,0,0,0,2.7-2.7V43.22a5.76,5.76,0,0,0-5.76-5.76H53.45A5.89,5.89,0,0,0,47.56,43.34Z"/><rect class="cls-3" height="5.85" width="44.39" x="43.5" y="98.94"/><polygon class="cls-4" points="81.09 116.5 50.82 116.5 46.2 104.79 85.52 104.79 81.09 116.5"/><rect class="cls-3" height="5.19" width="1.46" x="64.88" y="34.56"/><path class="cls-5" d="M65.83,11.5c0,3.14,7.25,8,7.25,15.34s-7.25,7.39-7.25,7.39-7.24-.09-7.24-7.39S65.83,14.64,65.83,11.5Z"/><path class="cls-2" d="M65.62,20.78c0,1.52,3.51,3.89,3.51,7.44a3.52,3.52,0,1,1-7,0C62.1,24.67,65.62,22.3,65.62,20.78Z"/><path class="cls-6" d="M83.37,109.8s1.85-8.52.06-12c0,0,5.48-1.36,5.95-6.08,0,0,6.85.09,10.07-3.51,0,0-3.28,4.89-1.06,12.82,0,0-6.91,2-5.82,6.42A14.85,14.85,0,0,0,83.37,109.8Z"/><rect class="cls-7" height="1.46" transform="translate(-42.63 113.05) rotate(-53.26)" width="26.89" x="77.97" y="98.3"/><path class="cls-6" d="M84.1,108.65S92.2,105.4,94,102c0,0,4.2,3.78,8.37,1.53,0,0,3.76,5.72,8.55,6.37,0,0-5.89,0-11.21,6.31,0,0-5.5-4.64-8.58-1.23A14.87,14.87,0,0,0,84.1,108.65Z"/><rect class="cls-7" height="26.89" transform="translate(-16.17 201.6) rotate(-87.32)" width="1.46" x="96.8" y="95.83"/><circle class="cls-5" cx="85.56" cy="106.25" r="4.39"/><circle class="cls-5" cx="81.17" cy="112.11" r="4.39"/></svg>